# xmcd
#
# Track frame offsets:
#	183
#	10725
#	23300
#	35180
#	48145
#	62928
#	78448
#	86475
#	98668
#	109793
#	121648
#	132125
#	143658
#	157328
#	169785
#	182558
#
# Disc length: 2567
#
# Revision: 6
# Processed by: cddbd v1.5.1PL0 Copyright (c) Steve Scherf et al.
# Submitted via: CDex 1.50
# Normalized: r5:DSETVAR1,TDELIM( - )
#
DISCID=c10a0510
DTITLE=Various Artist - Country Show - Volume 2
DYEAR=1900
DGENRE=Country
TTITLE0=Willie Nelson - I Feel Sorry For Him
TTITLE1=Kenny Rogers - Sleep Comes Easy
TTITLE2=Dolly Parton - Letter To Heaven
TTITLE3=Don Williams - Where Do We Go From Here
TTITLE4=Willie Nelson - And So Will You Love Me
TTITLE5=Kenny Rogers - My Washington Woman
TTITLE6=Willie Nelson - Things To Remember
TTITLE7=Kenny Rogers - Reuben James
TTITLE8=Don Wiliams - Storybook Children
TTITLE9=Willie Nelson - I Hope So
TTITLE10=Dolly Parton - Honky Tonk Angels
TTITLE11=Kenny Rogers - Poem For My Little Lady
TTITLE12=Willie Nelson - Home Is Where You're Happy
TTITLE13=Don Williams - There's Never Been A Time
TTITLE14=Dolly Parton - Little Blossom
TTITLE15=Willie Nelson - Healing Hands Of Time
EXTD=
EXTT0=
EXTT1=
EXTT2=
EXTT3=
EXTT4=
EXTT5=
EXTT6=
EXTT7=
EXTT8=
EXTT9=
EXTT10=
EXTT11=
EXTT12=
EXTT13=
EXTT14=
EXTT15=
PLAYORDER=
